<svg width="1920" height="1080" viewBox="0 0 1920 1080" fill="none" xmlns="http://www.w3.org/2000/svg">
<g clip-path="url(#clip0_17_1053)">
<path d="M0 206L29.2 216.8C58.3 227.7 116.7 249.3 174.8 269.2C233 289 291 307 349.2 314.2C407.3 321.3 465.7 317.7 523.8 299.7C582 281.7 640 249.3 698.2 251.2C756.3 253 814.7 289 872.8 289C931 289 989 253 1047.2 231.3C1105.3 209.7 1163.7 202.3 1221.8 229.3C1280 256.3 1338 317.7 1396.2 323.2C1454.3 328.7 1512.7 278.3 1570.8 260.3C1629 242.3 1687 256.7 1745.2 271C1803.3 285.3 1861.7 299.7 1890.8 306.8L1920 314V0H1890.8C1861.7 0 1803.3 0 1745.2 0C1687 0 1629 0 1570.8 0C1512.7 0 1454.3 0 1396.2 0C1338 0 1280 0 1221.8 0C1163.7 0 1105.3 0 1047.2 0C989 0 931 0 872.8 0C814.7 0 756.3 0 698.2 0C640 0 582 0 523.8 0C465.7 0 407.3 0 349.2 0C291 0 233 0 174.8 0C116.7 0 58.3 0 29.2 0H0V206Z" fill="#73ACBD"/>
<path d="M0 584L29.2 587.7C58.3 591.3 116.7 598.7 174.8 589.7C233 580.7 291 555.3 349.2 542.7C407.3 530 465.7 530 523.8 540.8C582 551.7 640 573.3 698.2 584.2C756.3 595 814.7 595 872.8 596.8C931 598.7 989 602.3 1047.2 600.5C1105.3 598.7 1163.7 591.3 1221.8 598.5C1280 605.7 1338 627.3 1396.2 634.5C1454.3 641.7 1512.7 634.3 1570.8 623.5C1629 612.7 1687 598.3 1745.2 596.7C1803.3 595 1861.7 606 1890.8 611.5L1920 617V312L1890.8 304.8C1861.7 297.7 1803.3 283.3 1745.2 269C1687 254.7 1629 240.3 1570.8 258.3C1512.7 276.3 1454.3 326.7 1396.2 321.2C1338 315.7 1280 254.3 1221.8 227.3C1163.7 200.3 1105.3 207.7 1047.2 229.3C989 251 931 287 872.8 287C814.7 287 756.3 251 698.2 249.2C640 247.3 582 279.7 523.8 297.7C465.7 315.7 407.3 319.3 349.2 312.2C291 305 233 287 174.8 267.2C116.7 247.3 58.3 225.7 29.2 214.8L0 204V584Z" fill="#599DB1"/>
<path d="M0 692L29.2 697.5C58.3 703 116.7 714 174.8 715.8C233 717.7 291 710.3 349.2 697.7C407.3 685 465.7 667 523.8 667C582 667 640 685 698.2 694C756.3 703 814.7 703 872.8 701.2C931 699.3 989 695.7 1047.2 688.5C1105.3 681.3 1163.7 670.7 1221.8 688.7C1280 706.7 1338 753.3 1396.2 764.2C1454.3 775 1512.7 750 1570.8 728.5C1629 707 1687 689 1745.2 692.5C1803.3 696 1861.7 721 1890.8 733.5L1920 746V615L1890.8 609.5C1861.7 604 1803.3 593 1745.2 594.7C1687 596.3 1629 610.7 1570.8 621.5C1512.7 632.3 1454.3 639.7 1396.2 632.5C1338 625.3 1280 603.7 1221.8 596.5C1163.7 589.3 1105.3 596.7 1047.2 598.5C989 600.3 931 596.7 872.8 594.8C814.7 593 756.3 593 698.2 582.2C640 571.3 582 549.7 523.8 538.8C465.7 528 407.3 528 349.2 540.7C291 553.3 233 578.7 174.8 587.7C116.7 596.7 58.3 589.3 29.2 585.7L0 582V692Z" fill="#3B8EA5"/>
<path d="M0 887L29.2 885.2C58.3 883.3 116.7 879.7 174.8 879.7C233 879.7 291 883.3 349.2 888.7C407.3 894 465.7 901 523.8 906.3C582 911.7 640 915.3 698.2 917.2C756.3 919 814.7 919 872.8 919C931 919 989 919 1047.2 910C1105.3 901 1163.7 883 1221.8 883C1280 883 1338 901 1396.2 911.8C1454.3 922.7 1512.7 926.3 1570.8 933.5C1629 940.7 1687 951.3 1745.2 947.7C1803.3 944 1861.7 926 1890.8 917L1920 908V744L1890.8 731.5C1861.7 719 1803.3 694 1745.2 690.5C1687 687 1629 705 1570.8 726.5C1512.7 748 1454.3 773 1396.2 762.2C1338 751.3 1280 704.7 1221.8 686.7C1163.7 668.7 1105.3 679.3 1047.2 686.5C989 693.7 931 697.3 872.8 699.2C814.7 701 756.3 701 698.2 692C640 683 582 665 523.8 665C465.7 665 407.3 683 349.2 695.7C291 708.3 233 715.7 174.8 713.8C116.7 712 58.3 701 29.2 695.5L0 690V887Z" fill="#337B8F"/>
<path d="M0 1081H29.2C58.3 1081 116.7 1081 174.8 1081C233 1081 291 1081 349.2 1081C407.3 1081 465.7 1081 523.8 1081C582 1081 640 1081 698.2 1081C756.3 1081 814.7 1081 872.8 1081C931 1081 989 1081 1047.2 1081C1105.3 1081 1163.7 1081 1221.8 1081C1280 1081 1338 1081 1396.2 1081C1454.3 1081 1512.7 1081 1570.8 1081C1629 1081 1687 1081 1745.2 1081C1803.3 1081 1861.7 1081 1890.8 1081H1920V906L1890.8 915C1861.7 924 1803.3 942 1745.2 945.7C1687 949.3 1629 938.7 1570.8 931.5C1512.7 924.3 1454.3 920.7 1396.2 909.8C1338 899 1280 881 1221.8 881C1163.7 881 1105.3 899 1047.2 908C989 917 931 917 872.8 917C814.7 917 756.3 917 698.2 915.2C640 913.3 582 909.7 523.8 904.3C465.7 899 407.3 892 349.2 886.7C291 881.3 233 877.7 174.8 877.7C116.7 877.7 58.3 881.3 29.2 883.2L0 885V1081Z" fill="#2C6879"/>
</g>
<defs>
<clipPath id="clip0_17_1053">
<rect width="1920" height="1080" fill="white"/>
</clipPath>
</defs>
</svg>
