<svg width="1920" height="1080" viewBox="0 0 1920 1080" fill="none" xmlns="http://www.w3.org/2000/svg">
<g clip-path="url(#clip0_17_1131)">
<path d="M0 185L29.2 213.7C58.3 242.3 116.7 299.7 174.8 380.7C233 461.7 291 566.3 349.2 537.7C407.3 509 465.7 347 523.8 302C582 257 640 329 698.2 321.7C756.3 314.3 814.7 227.7 872.8 206C931 184.3 989 227.7 1047.2 271C1105.3 314.3 1163.7 357.7 1221.8 379.3C1280 401 1338 401 1396.2 356C1454.3 311 1512.7 221 1570.8 219.2C1629 217.3 1687 303.7 1745.2 359.3C1803.3 415 1861.7 440 1890.8 452.5L1920 465V0H1890.8C1861.7 0 1803.3 0 1745.2 0C1687 0 1629 0 1570.8 0C1512.7 0 1454.3 0 1396.2 0C1338 0 1280 0 1221.8 0C1163.7 0 1105.3 0 1047.2 0C989 0 931 0 872.8 0C814.7 0 756.3 0 698.2 0C640 0 582 0 523.8 0C465.7 0 407.3 0 349.2 0C291 0 233 0 174.8 0C116.7 0 58.3 0 29.2 0H0V185Z" fill="#FE907D"/>
<path d="M0 336L29.2 373.8C58.3 411.7 116.7 487.3 174.8 552.2C233 617 291 671 349.2 626C407.3 581 465.7 437 523.8 417.2C582 397.3 640 501.7 698.2 494.3C756.3 487 814.7 368 872.8 348.2C931 328.3 989 407.7 1047.2 465.3C1105.3 523 1163.7 559 1221.8 559C1280 559 1338 523 1396.2 483.3C1454.3 443.7 1512.7 400.3 1570.8 396.7C1629 393 1687 429 1745.2 483C1803.3 537 1861.7 609 1890.8 645L1920 681V463L1890.8 450.5C1861.7 438 1803.3 413 1745.2 357.3C1687 301.7 1629 215.3 1570.8 217.2C1512.7 219 1454.3 309 1396.2 354C1338 399 1280 399 1221.8 377.3C1163.7 355.7 1105.3 312.3 1047.2 269C989 225.7 931 182.3 872.8 204C814.7 225.7 756.3 312.3 698.2 319.7C640 327 582 255 523.8 300C465.7 345 407.3 507 349.2 535.7C291 564.3 233 459.7 174.8 378.7C116.7 297.7 58.3 240.3 29.2 211.7L0 183V336Z" fill="#F87661"/>
<path d="M0 789H29.2C58.3 789 116.7 789 174.8 796.3C233 803.7 291 818.3 349.2 809.3C407.3 800.3 465.7 767.7 523.8 762.2C582 756.7 640 778.3 698.2 791C756.3 803.7 814.7 807.3 872.8 812.8C931 818.3 989 825.7 1047.2 827.5C1105.3 829.3 1163.7 825.7 1221.8 800.3C1280 775 1338 728 1396.2 720.8C1454.3 713.7 1512.7 746.3 1570.8 775.2C1629 804 1687 829 1745.2 836.2C1803.3 843.3 1861.7 832.7 1890.8 827.3L1920 822V679L1890.8 643C1861.7 607 1803.3 535 1745.2 481C1687 427 1629 391 1570.8 394.7C1512.7 398.3 1454.3 441.7 1396.2 481.3C1338 521 1280 557 1221.8 557C1163.7 557 1105.3 521 1047.2 463.3C989 405.7 931 326.3 872.8 346.2C814.7 366 756.3 485 698.2 492.3C640 499.7 582 395.3 523.8 415.2C465.7 435 407.3 579 349.2 624C291 669 233 615 174.8 550.2C116.7 485.3 58.3 409.7 29.2 371.8L0 334V789Z" fill="#F15946"/>
<path d="M0 962L29.2 969.2C58.3 976.3 116.7 990.7 174.8 996.2C233 1001.7 291 998.3 349.2 980.3C407.3 962.3 465.7 929.7 523.8 927.8C582 926 640 955 698.2 974.8C756.3 994.7 814.7 1005.3 872.8 1007.2C931 1009 989 1002 1047.2 982.2C1105.3 962.3 1163.7 929.7 1221.8 890C1280 850.3 1338 803.7 1396.2 818.2C1454.3 832.7 1512.7 908.3 1570.8 946.2C1629 984 1687 984 1745.2 975C1803.3 966 1861.7 948 1890.8 939L1920 930V820L1890.8 825.3C1861.7 830.7 1803.3 841.3 1745.2 834.2C1687 827 1629 802 1570.8 773.2C1512.7 744.3 1454.3 711.7 1396.2 718.8C1338 726 1280 773 1221.8 798.3C1163.7 823.7 1105.3 827.3 1047.2 825.5C989 823.7 931 816.3 872.8 810.8C814.7 805.3 756.3 801.7 698.2 789C640 776.3 582 754.7 523.8 760.2C465.7 765.7 407.3 798.3 349.2 807.3C291 816.3 233 801.7 174.8 794.3C116.7 787 58.3 787 29.2 787H0V962Z" fill="#D34B3B"/>
<path d="M0 1081H29.2C58.3 1081 116.7 1081 174.8 1081C233 1081 291 1081 349.2 1081C407.3 1081 465.7 1081 523.8 1081C582 1081 640 1081 698.2 1081C756.3 1081 814.7 1081 872.8 1081C931 1081 989 1081 1047.2 1081C1105.3 1081 1163.7 1081 1221.8 1081C1280 1081 1338 1081 1396.2 1081C1454.3 1081 1512.7 1081 1570.8 1081C1629 1081 1687 1081 1745.2 1081C1803.3 1081 1861.7 1081 1890.8 1081H1920V928L1890.8 937C1861.7 946 1803.3 964 1745.2 973C1687 982 1629 982 1570.8 944.2C1512.7 906.3 1454.3 830.7 1396.2 816.2C1338 801.7 1280 848.3 1221.8 888C1163.7 927.7 1105.3 960.3 1047.2 980.2C989 1000 931 1007 872.8 1005.2C814.7 1003.3 756.3 992.7 698.2 972.8C640 953 582 924 523.8 925.8C465.7 927.7 407.3 960.3 349.2 978.3C291 996.3 233 999.7 174.8 994.2C116.7 988.7 58.3 974.3 29.2 967.2L0 960V1081Z" fill="#B53E31"/>
</g>
<defs>
<clipPath id="clip0_17_1131">
<rect width="1920" height="1080" fill="white"/>
</clipPath>
</defs>
</svg>
