<svg width="1920" height="1080" viewBox="0 0 1920 1080" fill="none" xmlns="http://www.w3.org/2000/svg">
<g clip-path="url(#clip0_17_1143)">
<path d="M0 152L29.2 139.5C58.3 127 116.7 102 174.8 85.8C233 69.7 291 62.3 349.2 89.3C407.3 116.3 465.7 177.7 523.8 190.3C582 203 640 167 698.2 152.5C756.3 138 814.7 145 872.8 161.2C931 177.3 989 202.7 1047.2 204.5C1105.3 206.3 1163.7 184.7 1221.8 175.7C1280 166.7 1338 170.3 1396.2 181.2C1454.3 192 1512.7 210 1570.8 206.3C1629 202.7 1687 177.3 1745.2 168.3C1803.3 159.3 1861.7 166.7 1890.8 170.3L1920 174V0H1890.8C1861.7 0 1803.3 0 1745.2 0C1687 0 1629 0 1570.8 0C1512.7 0 1454.3 0 1396.2 0C1338 0 1280 0 1221.8 0C1163.7 0 1105.3 0 1047.2 0C989 0 931 0 872.8 0C814.7 0 756.3 0 698.2 0C640 0 582 0 523.8 0C465.7 0 407.3 0 349.2 0C291 0 233 0 174.8 0C116.7 0 58.3 0 29.2 0H0V152Z" fill="#FE907D"/>
<path d="M0 627L29.2 562.3C58.3 497.7 116.7 368.3 174.8 348.7C233 329 291 419 349.2 453.2C407.3 487.3 465.7 465.7 523.8 463.8C582 462 640 480 698.2 485.3C756.3 490.7 814.7 483.3 872.8 477.8C931 472.3 989 468.7 1047.2 468.7C1105.3 468.7 1163.7 472.3 1221.8 461.7C1280 451 1338 426 1396.2 411.7C1454.3 397.3 1512.7 393.7 1570.8 384.7C1629 375.7 1687 361.3 1745.2 393.7C1803.3 426 1861.7 505 1890.8 544.5L1920 584V172L1890.8 168.3C1861.7 164.7 1803.3 157.3 1745.2 166.3C1687 175.3 1629 200.7 1570.8 204.3C1512.7 208 1454.3 190 1396.2 179.2C1338 168.3 1280 164.7 1221.8 173.7C1163.7 182.7 1105.3 204.3 1047.2 202.5C989 200.7 931 175.3 872.8 159.2C814.7 143 756.3 136 698.2 150.5C640 165 582 201 523.8 188.3C465.7 175.7 407.3 114.3 349.2 87.2998C291 60.2998 233 67.6998 174.8 83.7998C116.7 99.9998 58.3 125 29.2 137.5L0 150V627Z" fill="#F87661"/>
<path d="M0 876L29.2 885C58.3 894 116.7 912 174.8 879.5C233 847 291 764 349.2 735.2C407.3 706.3 465.7 731.7 523.8 740.7C582 749.7 640 742.3 698.2 747.7C756.3 753 814.7 771 872.8 810.7C931 850.3 989 911.7 1047.2 915.3C1105.3 919 1163.7 865 1221.8 816.3C1280 767.7 1338 724.3 1396.2 702.7C1454.3 681 1512.7 681 1570.8 681C1629 681 1687 681 1745.2 704.5C1803.3 728 1861.7 775 1890.8 798.5L1920 822V582L1890.8 542.5C1861.7 503 1803.3 424 1745.2 391.7C1687 359.3 1629 373.7 1570.8 382.7C1512.7 391.7 1454.3 395.3 1396.2 409.7C1338 424 1280 449 1221.8 459.7C1163.7 470.3 1105.3 466.7 1047.2 466.7C989 466.7 931 470.3 872.8 475.8C814.7 481.3 756.3 488.7 698.2 483.3C640 478 582 460 523.8 461.8C465.7 463.7 407.3 485.3 349.2 451.2C291 417 233 327 174.8 346.7C116.7 366.3 58.3 495.7 29.2 560.3L0 625V876Z" fill="#F15946"/>
<path d="M0 930L29.2 940.8C58.3 951.7 116.7 973.3 174.8 955.3C233 937.3 291 879.7 349.2 852.7C407.3 825.7 465.7 829.3 523.8 829.3C582 829.3 640 825.7 698.2 841.8C756.3 858 814.7 894 872.8 928.2C931 962.3 989 994.7 1047.2 1005.5C1105.3 1016.3 1163.7 1005.7 1221.8 964.3C1280 923 1338 851 1396.2 829.3C1454.3 807.7 1512.7 836.3 1570.8 836.3C1629 836.3 1687 807.7 1745.2 814.8C1803.3 822 1861.7 865 1890.8 886.5L1920 908V820L1890.8 796.5C1861.7 773 1803.3 726 1745.2 702.5C1687 679 1629 679 1570.8 679C1512.7 679 1454.3 679 1396.2 700.7C1338 722.3 1280 765.7 1221.8 814.3C1163.7 863 1105.3 917 1047.2 913.3C989 909.7 931 848.3 872.8 808.7C814.7 769 756.3 751 698.2 745.7C640 740.3 582 747.7 523.8 738.7C465.7 729.7 407.3 704.3 349.2 733.2C291 762 233 845 174.8 877.5C116.7 910 58.3 892 29.2 883L0 874V930Z" fill="#D34B3B"/>
<path d="M0 1081H29.2C58.3 1081 116.7 1081 174.8 1081C233 1081 291 1081 349.2 1081C407.3 1081 465.7 1081 523.8 1081C582 1081 640 1081 698.2 1081C756.3 1081 814.7 1081 872.8 1081C931 1081 989 1081 1047.2 1081C1105.3 1081 1163.7 1081 1221.8 1081C1280 1081 1338 1081 1396.2 1081C1454.3 1081 1512.7 1081 1570.8 1081C1629 1081 1687 1081 1745.2 1081C1803.3 1081 1861.7 1081 1890.8 1081H1920V906L1890.8 884.5C1861.7 863 1803.3 820 1745.2 812.8C1687 805.7 1629 834.3 1570.8 834.3C1512.7 834.3 1454.3 805.7 1396.2 827.3C1338 849 1280 921 1221.8 962.3C1163.7 1003.7 1105.3 1014.3 1047.2 1003.5C989 992.7 931 960.3 872.8 926.2C814.7 892 756.3 856 698.2 839.8C640 823.7 582 827.3 523.8 827.3C465.7 827.3 407.3 823.7 349.2 850.7C291 877.7 233 935.3 174.8 953.3C116.7 971.3 58.3 949.7 29.2 938.8L0 928V1081Z" fill="#B53E31"/>
</g>
<defs>
<clipPath id="clip0_17_1143">
<rect width="1920" height="1080" fill="white"/>
</clipPath>
</defs>
</svg>
