<svg width="1920" height="1080" viewBox="0 0 1920 1080" fill="none" xmlns="http://www.w3.org/2000/svg">
<g clip-path="url(#clip0_17_1209)">
<path d="M0 109L29.2 96.3C58.3 83.7 116.7 58.3 174.8 53C233 47.7 291 62.3 349.2 71.3C407.3 80.3 465.7 83.7 523.8 80C582 76.3 640 65.7 698.2 78.3C756.3 91 814.7 127 872.8 137.8C931 148.7 989 134.3 1047.2 121.7C1105.3 109 1163.7 98 1221.8 92.5C1280 87 1338 87 1396.2 87C1454.3 87 1512.7 87 1570.8 78C1629 69 1687 51 1745.2 60C1803.3 69 1861.7 105 1890.8 123L1920 141V0H1890.8C1861.7 0 1803.3 0 1745.2 0C1687 0 1629 0 1570.8 0C1512.7 0 1454.3 0 1396.2 0C1338 0 1280 0 1221.8 0C1163.7 0 1105.3 0 1047.2 0C989 0 931 0 872.8 0C814.7 0 756.3 0 698.2 0C640 0 582 0 523.8 0C465.7 0 407.3 0 349.2 0C291 0 233 0 174.8 0C116.7 0 58.3 0 29.2 0H0V109Z" fill="#F2D0A8"/>
<path d="M0 282L29.2 285.5C58.3 289 116.7 296 174.8 330.2C233 364.3 291 425.7 349.2 409.5C407.3 393.3 465.7 299.7 523.8 285.3C582 271 640 336 698.2 357.7C756.3 379.3 814.7 357.7 872.8 375.7C931 393.7 989 451.3 1047.2 469.3C1105.3 487.3 1163.7 465.7 1221.8 408C1280 350.3 1338 256.7 1396.2 204.5C1454.3 152.3 1512.7 141.7 1570.8 190.3C1629 239 1687 347 1745.2 363.2C1803.3 379.3 1861.7 303.7 1890.8 265.8L1920 228V139L1890.8 121C1861.7 103 1803.3 66.9998 1745.2 57.9998C1687 48.9998 1629 66.9998 1570.8 75.9998C1512.7 84.9998 1454.3 84.9998 1396.2 84.9998C1338 84.9998 1280 84.9998 1221.8 90.4998C1163.7 95.9998 1105.3 107 1047.2 119.7C989 132.3 931 146.7 872.8 135.8C814.7 125 756.3 88.9998 698.2 76.2998C640 63.6998 582 74.2998 523.8 77.9998C465.7 81.6998 407.3 78.2998 349.2 69.2998C291 60.2998 233 45.6998 174.8 50.9998C116.7 56.2998 58.3 81.6998 29.2 94.2998L0 107V282Z" fill="#EFC595"/>
<path d="M0 314L29.2 357.2C58.3 400.3 116.7 486.7 174.8 517.3C233 548 291 523 349.2 512.3C407.3 501.7 465.7 505.3 523.8 505.3C582 505.3 640 501.7 698.2 505.2C756.3 508.7 814.7 519.3 872.8 530.2C931 541 989 552 1047.2 548.5C1105.3 545 1163.7 527 1221.8 501.7C1280 476.3 1338 443.7 1396.2 425.7C1454.3 407.7 1512.7 404.3 1570.8 422.3C1629 440.3 1687 479.7 1745.2 452.7C1803.3 425.7 1861.7 332.3 1890.8 285.7L1920 239V226L1890.8 263.8C1861.7 301.7 1803.3 377.3 1745.2 361.2C1687 345 1629 237 1570.8 188.3C1512.7 139.7 1454.3 150.3 1396.2 202.5C1338 254.7 1280 348.3 1221.8 406C1163.7 463.7 1105.3 485.3 1047.2 467.3C989 449.3 931 391.7 872.8 373.7C814.7 355.7 756.3 377.3 698.2 355.7C640 334 582 269 523.8 283.3C465.7 297.7 407.3 391.3 349.2 407.5C291 423.7 233 362.3 174.8 328.2C116.7 294 58.3 287 29.2 283.5L0 280V314Z" fill="#ECBA82"/>
<path d="M0 811L29.2 832.7C58.3 854.3 116.7 897.7 174.8 908.5C233 919.3 291 897.7 349.2 877.8C407.3 858 465.7 840 523.8 856.2C582 872.3 640 922.7 698.2 929.8C756.3 937 814.7 901 872.8 902.8C931 904.7 989 944.3 1047.2 955.2C1105.3 966 1163.7 948 1221.8 912C1280 876 1338 822 1396.2 768C1454.3 714 1512.7 660 1570.8 665.3C1629 670.7 1687 735.3 1745.2 744.3C1803.3 753.3 1861.7 706.7 1890.8 683.3L1920 660V237L1890.8 283.7C1861.7 330.3 1803.3 423.7 1745.2 450.7C1687 477.7 1629 438.3 1570.8 420.3C1512.7 402.3 1454.3 405.7 1396.2 423.7C1338 441.7 1280 474.3 1221.8 499.7C1163.7 525 1105.3 543 1047.2 546.5C989 550 931 539 872.8 528.2C814.7 517.3 756.3 506.7 698.2 503.2C640 499.7 582 503.3 523.8 503.3C465.7 503.3 407.3 499.7 349.2 510.3C291 521 233 546 174.8 515.3C116.7 484.7 58.3 398.3 29.2 355.2L0 312V811Z" fill="#DFAA70"/>
<path d="M0 1081H29.2C58.3 1081 116.7 1081 174.8 1081C233 1081 291 1081 349.2 1081C407.3 1081 465.7 1081 523.8 1081C582 1081 640 1081 698.2 1081C756.3 1081 814.7 1081 872.8 1081C931 1081 989 1081 1047.2 1081C1105.3 1081 1163.7 1081 1221.8 1081C1280 1081 1338 1081 1396.2 1081C1454.3 1081 1512.7 1081 1570.8 1081C1629 1081 1687 1081 1745.2 1081C1803.3 1081 1861.7 1081 1890.8 1081H1920V658L1890.8 681.3C1861.7 704.7 1803.3 751.3 1745.2 742.3C1687 733.3 1629 668.7 1570.8 663.3C1512.7 658 1454.3 712 1396.2 766C1338 820 1280 874 1221.8 910C1163.7 946 1105.3 964 1047.2 953.2C989 942.3 931 902.7 872.8 900.8C814.7 899 756.3 935 698.2 927.8C640 920.7 582 870.3 523.8 854.2C465.7 838 407.3 856 349.2 875.8C291 895.7 233 917.3 174.8 906.5C116.7 895.7 58.3 852.3 29.2 830.7L0 809V1081Z" fill="#D29B5E"/>
</g>
<defs>
<clipPath id="clip0_17_1209">
<rect width="1920" height="1080" fill="white"/>
</clipPath>
</defs>
</svg>
